<svg xmlns="http://www.w3.org/2000/svg" xmlns:xlink="http://www.w3.org/1999/xlink" version="1.0" x="0" y="0" width="2400" height="599.7837910225322" viewBox="40.21520217895508 92.56549057006836 259.56959564208984 64.86901504516601" preserveAspectRatio="xMidYMid meet" color-interpolation-filters="sRGB"><g><defs><linearGradient id="92" x1="0%" y1="0%" x2="100%" y2="0%"><stop offset="0%" stop-color="#fa71cd"></stop> <stop offset="100%" stop-color="#9b59b6"></stop></linearGradient><linearGradient id="93" x1="0%" y1="0%" x2="100%" y2="0%"><stop offset="0%" stop-color="#f9d423"></stop> <stop offset="100%" stop-color="#f83600"></stop></linearGradient><linearGradient id="94" x1="0%" y1="0%" x2="100%" y2="0%"><stop offset="0%" stop-color="#0064d2"></stop> <stop offset="100%" stop-color="#1cb0f6"></stop></linearGradient><linearGradient id="95" x1="0%" y1="0%" x2="100%" y2="0%"><stop offset="0%" stop-color="#f00978"></stop> <stop offset="100%" stop-color="#3f51b1"></stop></linearGradient><linearGradient id="96" x1="0%" y1="0%" x2="100%" y2="0%"><stop offset="0%" stop-color="#7873f5"></stop> <stop offset="100%" stop-color="#ec77ab"></stop></linearGradient><linearGradient id="97" x1="0%" y1="0%" x2="100%" y2="0%"><stop offset="0%" stop-color="#f9d423"></stop> <stop offset="100%" stop-color="#e14fad"></stop></linearGradient><linearGradient id="98" x1="0%" y1="0%" x2="100%" y2="0%"><stop offset="0%" stop-color="#009efd"></stop> <stop offset="100%" stop-color="#2af598"></stop></linearGradient><linearGradient id="99" x1="0%" y1="0%" x2="100%" y2="0%"><stop offset="0%" stop-color="#ffcc00"></stop> <stop offset="100%" stop-color="#00b140"></stop></linearGradient><linearGradient id="100" x1="0%" y1="0%" x2="100%" y2="0%"><stop offset="0%" stop-color="#d51007"></stop> <stop offset="100%" stop-color="#ff8177"></stop></linearGradient><linearGradient id="102" x1="0%" y1="0%" x2="100%" y2="0%"><stop offset="0%" stop-color="#a2b6df"></stop> <stop offset="100%" stop-color="#0c3483"></stop></linearGradient><linearGradient id="103" x1="0%" y1="0%" x2="100%" y2="0%"><stop offset="0%" stop-color="#7ac5d8"></stop> <stop offset="100%" stop-color="#eea2a2"></stop></linearGradient><linearGradient id="104" x1="0%" y1="0%" x2="100%" y2="0%"><stop offset="0%" stop-color="#00ecbc"></stop> <stop offset="100%" stop-color="#007adf"></stop></linearGradient><linearGradient id="105" x1="0%" y1="0%" x2="100%" y2="0%"><stop offset="0%" stop-color="#b88746"></stop> <stop offset="100%" stop-color="#fdf5a6"></stop></linearGradient></defs><g fill="#BD93F9" class="icon-text-wrapper icon-svg-group iconsvg" transform="translate(42.76000213623047,95.11029243469238)"><g class="iconsvg-imagesvg" transform="translate(0,0)"><g><rect fill="#BD93F9" fill-opacity="0" stroke-width="2" x="0" y="0" width="60" height="59.77941396247846" class="image-rect"></rect> <svg x="0" y="0" width="60" height="59.77941396247846" filtersec="colorsb9438514368" class="image-svg-svg primary" style="overflow: visible;"><svg xmlns="http://www.w3.org/2000/svg" viewBox="-0.05999736487865448 -0.0000152645352500258 141.5800018310547 141.0600128173828"><path d="M131.94 66A66 66 0 1 1 66 0a66 66 0 0 1 65.94 66z" fill="#44475A"></path><path d="M131.92 66.09a65.94 65.94 0 0 1-112.74 46.48l93.55-93.25a66.91 66.91 0 0 1 19.19 46.77z" fill="#6272A4"></path><path fill="#BD93F9" d="M141.52 120.97L76.15 55.6 56.06 75.69l65.37 65.37 20.09-20.09z"></path></svg></svg> </g></g> <g transform="translate(68,4.119707107543945)"><g fill-rule="" class="tp-name iconsvg-namesvg"><g transform="scale(1)"><g><path d="M30.4 0L23.15 0 21.94-3.46 21.38-3.46Q20.17-1.55 18.02-0.53 15.87 0.49 12.97 0.49L12.97 0.49Q8.38 0.49 5.82-2.17 3.27-4.84 3.27-9.71L3.27-9.71 3.27-27.84 12.88-27.84 12.88-12.63Q12.88-9.9 13.65-8.5 14.42-7.1 16.19-7.1L16.19-7.1Q18.68-7.1 19.73-9.06 20.79-11.01 20.79-15.65L20.79-15.65 20.79-27.84 30.4-27.84 30.4 0ZM65.85 0L59.19 0 57.35-3.69 57.15-3.69Q55.21-1.28 53.2-0.39 51.18 0.49 47.99 0.49L47.99 0.49Q44.05 0.49 41.79-1.87 39.53-4.23 39.53-8.5L39.53-8.5Q39.53-12.95 42.63-15.13 45.73-17.3 51.6-17.57L51.6-17.57 56.24-17.72 56.24-18.11Q56.24-21.55 52.85-21.55L52.85-21.55Q49.81-21.55 45.11-19.49L45.11-19.49 42.33-25.83Q47.2-28.33 54.62-28.33L54.62-28.33Q59.98-28.33 62.92-25.68 65.85-23.03 65.85-18.26L65.85-18.26 65.85 0ZM52.07-6.29L52.07-6.29Q53.81-6.29 55.05-7.4 56.29-8.5 56.29-10.27L56.29-10.27 56.29-12.43 54.08-12.34Q49.34-12.16 49.34-8.85L49.34-8.85Q49.34-6.29 52.07-6.29ZM103.57 0L93.96 0 93.96-15.19Q93.96-17.96 93.16-19.38 92.36-20.79 90.59-20.79L90.59-20.79Q88.16-20.79 87.08-18.85 86-16.91 86-12.19L86-12.19 86 0 76.39 0 76.39-27.84 83.64-27.84 84.84-24.4 85.41-24.4Q86.64-26.37 88.81-27.35 90.98-28.33 93.81-28.33L93.81-28.33Q98.43-28.33 101-25.65 103.57-22.98 103.57-18.11L103.57-18.11 103.57 0ZM127.74-7.1L127.74-7.1Q129.68-7.1 132.39-8.06L132.39-8.06 132.39-1.06Q130.44-0.22 128.69 0.14 126.93 0.49 124.57 0.49L124.57 0.49Q119.73 0.49 117.59-1.88 115.45-4.25 115.45-9.17L115.45-9.17 115.45-20.64 112.09-20.64 112.09-24.55 116.36-27.57 118.85-33.42 125.14-33.42 125.14-27.84 131.97-27.84 131.97-20.64 125.14-20.64 125.14-9.8Q125.14-7.1 127.74-7.1ZM150.91-27.84L150.91 0 141.3 0 141.3-27.84 150.91-27.84ZM141.05-34.77L141.05-34.77Q141.05-36.93 142.26-37.99 143.46-39.05 146.14-39.05L146.14-39.05Q148.82-39.05 150.05-37.97 151.28-36.88 151.28-34.77L151.28-34.77Q151.28-30.54 146.14-30.54L146.14-30.54Q141.05-30.54 141.05-34.77ZM158.55 0L167.52-14.2 159.01-27.84 169.92-27.84 174.15-20.03 178.47-27.84 189.41-27.84 180.69-14.2 189.75 0 178.84 0 174.15-8.45 169.48 0 158.55 0Z" transform="translate(-3.2699999809265137, 39.04999923706055)"></path></g> </g></g> </g></g><defs v-gra="od"></defs></g></svg>